<?xml version="1.0" encoding="utf-8"?>
<svg xmlns="http://www.w3.org/2000/svg" viewBox="0 0 501.74 153.132">
  <defs>
    <clipPath id="clipPath18" clipPathUnits="userSpaceOnUse">
      <path id="path16" d="M 0,346.213 H 828.255 V 0 H 0 Z"/>
    </clipPath>
  </defs>
  <g id="svg2" transform="matrix(0.518669, 0, 0, 0.518669, -17.032125, -45.194656)" style="">
    <g transform="matrix(1.333333, 0, 0, -1.333333, -37.088627, 484.536102)" id="g10">
      <g id="g12">
        <g clip-path="url(#clipPath18)" id="g14">
          <g transform="translate(56.5919,150.0397)" id="g20">
            <path id="path22" style="fill:#305252;fill-opacity:1;fill-rule:nonzero;stroke:none" d="M 0,0 C -1.117,0 -2.028,0.354 -2.734,1.063 -3.442,1.769 -3.797,2.68 -3.797,3.797 V 102.5 c 0,1.113 0.355,2.025 1.063,2.733 0.706,0.709 1.617,1.063 2.734,1.063 h 69.701 c 1.11,0 2.05,-0.354 2.809,-1.063 0.76,-0.708 1.139,-1.62 1.139,-2.733 V 87.165 c 0,-1.117 -0.379,-2.028 -1.139,-2.734 -0.759,-0.708 -1.699,-1.063 -2.809,-1.063 H 22.928 V 61.045 h 43.736 c 1.113,0 2.05,-0.38 2.809,-1.139 0.759,-0.759 1.139,-1.696 1.139,-2.809 V 41.91 c 0,-1.012 -0.38,-1.898 -1.139,-2.657 -0.759,-0.759 -1.696,-1.139 -2.809,-1.139 H 22.928 V 3.797 C 22.928,2.68 22.573,1.769 21.865,1.063 21.156,0.354 20.245,0 19.134,0 Z"/>
          </g>
          <g transform="translate(180.6527,167.0481)" id="g24">
            <path id="path26" style="fill:#305252;fill-opacity:1;fill-rule:nonzero;stroke:none" d="m 0,0 c 4.556,0 7.871,1.367 9.947,4.1 2.075,2.734 3.265,6.834 3.569,12.301 0.101,1.515 0.151,3.54 0.151,6.071 0,2.531 -0.05,4.556 -0.151,6.075 -0.304,5.365 -1.494,9.44 -3.569,12.224 -2.076,2.785 -5.391,4.177 -9.947,4.177 -4.455,0 -7.745,-1.392 -9.871,-4.177 -2.126,-2.784 -3.29,-6.859 -3.49,-12.224 -0.104,-1.519 -0.151,-3.544 -0.151,-6.075 0,-2.531 0.047,-4.556 0.151,-6.071 0.2,-5.467 1.364,-9.567 3.49,-12.301 C -7.745,1.367 -4.455,0 0,0 m 0,-18.527 c -8.504,0 -15.667,1.367 -21.485,4.1 -5.825,2.734 -10.276,6.657 -13.364,11.769 -3.091,5.11 -4.837,11.21 -5.239,18.3 -0.101,2.021 -0.152,4.325 -0.152,6.906 0,2.582 0.051,4.834 0.152,6.758 0.402,7.188 2.224,13.313 5.467,18.375 3.24,5.062 7.767,8.96 13.591,11.693 5.819,2.734 12.83,4.101 21.03,4.101 8.302,0 15.363,-1.367 21.185,-4.101 5.821,-2.733 10.348,-6.631 13.591,-11.693 3.24,-5.062 5.059,-11.187 5.467,-18.375 0.098,-1.924 0.152,-4.176 0.152,-6.758 0,-2.581 -0.054,-4.885 -0.152,-6.906 C 39.835,8.552 38.092,2.452 35.004,-2.658 31.913,-7.77 27.462,-11.693 21.64,-14.427 15.819,-17.16 8.605,-18.527 0,-18.527"/>
          </g>
          <g transform="translate(273.2815,167.0481)" id="g28">
            <path id="path30" style="fill:#305252;fill-opacity:1;fill-rule:nonzero;stroke:none" d="m 0,0 c 4.556,0 7.871,1.367 9.947,4.1 2.075,2.734 3.265,6.834 3.569,12.301 0.101,1.515 0.151,3.54 0.151,6.071 0,2.531 -0.05,4.556 -0.151,6.075 -0.304,5.365 -1.494,9.44 -3.569,12.224 -2.076,2.785 -5.391,4.177 -9.947,4.177 -4.455,0 -7.745,-1.392 -9.871,-4.177 -2.126,-2.784 -3.29,-6.859 -3.49,-12.224 -0.104,-1.519 -0.151,-3.544 -0.151,-6.075 0,-2.531 0.047,-4.556 0.151,-6.071 0.2,-5.467 1.364,-9.567 3.49,-12.301 C -7.745,1.367 -4.455,0 0,0 m 0,-18.527 c -8.504,0 -15.667,1.367 -21.485,4.1 -5.825,2.734 -10.276,6.657 -13.364,11.769 -3.091,5.11 -4.837,11.21 -5.239,18.3 -0.101,2.021 -0.152,4.325 -0.152,6.906 0,2.582 0.051,4.834 0.152,6.758 0.402,7.188 2.224,13.313 5.467,18.375 3.24,5.062 7.767,8.96 13.591,11.693 5.819,2.734 12.83,4.101 21.03,4.101 8.302,0 15.363,-1.367 21.185,-4.101 5.821,-2.733 10.348,-6.631 13.591,-11.693 3.24,-5.062 5.059,-11.187 5.467,-18.375 0.098,-1.924 0.152,-4.176 0.152,-6.758 0,-2.581 -0.054,-4.885 -0.152,-6.906 C 39.835,8.552 38.092,2.452 35.004,-2.658 31.913,-7.77 27.461,-11.693 21.64,-14.427 15.819,-17.16 8.605,-18.527 0,-18.527"/>
          </g>
          <g transform="translate(366.214,168.8705)" id="g32">
            <path id="path34" style="fill:#305252;fill-opacity:1;fill-rule:nonzero;stroke:none" d="m 0,0 c 3.442,0 6.15,0.731 8.125,2.202 1.974,1.465 3.442,3.363 4.404,5.695 0.961,2.325 1.493,4.859 1.594,7.59 0.101,2.024 0.152,3.948 0.152,5.77 0,1.823 -0.051,3.696 -0.152,5.619 -0.101,2.531 -0.658,4.885 -1.67,7.062 -1.013,2.176 -2.531,3.948 -4.556,5.315 -2.025,1.367 -4.657,2.05 -7.897,2.05 -3.341,0 -5.999,-0.709 -7.973,-2.126 -1.974,-1.417 -3.366,-3.341 -4.176,-5.771 -0.81,-2.43 -1.316,-5.112 -1.515,-8.048 -0.304,-3.139 -0.304,-6.277 0,-9.416 0.199,-2.936 0.705,-5.615 1.515,-8.045 0.81,-2.43 2.202,-4.357 4.176,-5.771 C -5.999,0.706 -3.341,0 0,0 m -8.2,-20.349 c -4.857,0 -9.239,0.784 -13.133,2.353 -3.901,1.57 -7.242,3.895 -10.023,6.986 -2.787,3.088 -4.936,6.834 -6.454,11.238 -1.519,4.404 -2.379,9.437 -2.582,15.107 -0.101,2.025 -0.152,3.822 -0.152,5.391 0,1.569 0.051,3.315 0.152,5.239 0.203,5.467 1.063,10.377 2.582,14.731 1.518,4.353 3.644,8.099 6.378,11.237 2.733,3.136 6.074,5.543 10.023,7.214 3.948,1.67 8.352,2.505 13.209,2.505 5.062,0 9.415,-0.835 13.06,-2.505 3.644,-1.671 6.732,-3.822 9.263,-6.454 v 32.495 c 0,1.113 0.354,2.024 1.063,2.733 0.709,0.709 1.62,1.063 2.734,1.063 h 18.527 c 1.009,0 1.898,-0.354 2.657,-1.063 0.759,-0.709 1.139,-1.62 1.139,-2.733 V -15.034 c 0,-1.117 -0.38,-2.028 -1.139,-2.734 -0.759,-0.708 -1.648,-1.063 -2.657,-1.063 H 19.286 c -1.113,0 -2.024,0.355 -2.733,1.063 -0.709,0.706 -1.063,1.617 -1.063,2.734 v 4.859 c -2.43,-2.939 -5.568,-5.369 -9.416,-7.289 -3.847,-1.92 -8.605,-2.885 -14.274,-2.885"/>
          </g>
          <g transform="translate(555.7268,165.8332)" id="g36">
            <path id="path38" style="fill:#ea8127;fill-opacity:1;fill-rule:nonzero;stroke:none" d="m 0,0 c 2.936,0 5.594,0.63 7.973,1.898 2.379,1.263 4.252,3.237 5.619,5.923 1.366,2.68 2.05,6.046 2.05,10.099 v 2.122 L 2.733,17.768 c -4.758,-0.813 -8.225,-2.05 -10.399,-3.721 -2.18,-1.67 -3.265,-3.622 -3.265,-5.847 0,-1.724 0.503,-3.189 1.519,-4.403 1.009,-1.215 2.325,-2.155 3.945,-2.81 C -3.847,0.326 -2.025,0 0,0 m -7.134,-17.312 c -5.467,0 -10.355,1.041 -14.655,3.113 -4.306,2.072 -7.723,4.882 -10.25,8.428 -2.531,3.544 -3.797,7.54 -3.797,11.997 0,7.185 2.936,12.88 8.808,17.081 5.869,4.202 13.667,7.062 23.383,8.581 l 18.983,2.885 v 2.126 c 0,3.645 -0.759,6.429 -2.278,8.352 -1.519,1.924 -4.303,2.886 -8.352,2.886 -2.835,0 -5.138,-0.557 -6.91,-1.671 -1.772,-1.113 -3.164,-2.632 -4.173,-4.556 -0.911,-1.316 -2.18,-1.974 -3.797,-1.974 H -27.18 c -1.117,0 -1.974,0.329 -2.582,0.987 -0.607,0.658 -0.86,1.443 -0.759,2.354 0,1.822 0.683,3.923 2.05,6.302 1.367,2.376 3.468,4.73 6.302,7.062 2.832,2.328 6.477,4.252 10.934,5.771 4.452,1.518 9.818,2.278 16.095,2.278 6.58,0 12.199,-0.76 16.856,-2.278 4.657,-1.519 8.428,-3.645 11.314,-6.379 2.885,-2.733 5.033,-5.947 6.454,-9.643 1.417,-3.695 2.126,-7.77 2.126,-12.224 v -46.163 c 0,-1.117 -0.38,-2.028 -1.139,-2.733 -0.759,-0.709 -1.648,-1.064 -2.658,-1.064 H 20.198 c -1.114,0 -2.025,0.355 -2.734,1.064 -0.709,0.705 -1.063,1.616 -1.063,2.733 v 5.315 c -1.316,-1.923 -3.088,-3.698 -5.315,-5.315 -2.227,-1.62 -4.834,-2.911 -7.821,-3.872 -2.987,-0.962 -6.454,-1.443 -10.399,-1.443"/>
          </g>
          <g transform="translate(640.3069,150.0397)" id="g40">
            <path id="path42" style="fill:#ea8127;fill-opacity:1;fill-rule:nonzero;stroke:none" d="M 0,0 C -1.519,0 -2.632,0.38 -3.338,1.139 -4.05,1.898 -4.657,2.784 -5.16,3.797 l -28.702,70.46 c -0.205,0.402 -0.304,0.857 -0.304,1.367 0,0.911 0.326,1.692 0.988,2.353 0.658,0.658 1.493,0.987 2.505,0.987 h 17.161 c 1.313,0 2.325,-0.357 3.037,-1.063 0.705,-0.708 1.161,-1.42 1.367,-2.126 L 8.049,29.157 25.361,75.775 c 0.202,0.706 0.658,1.418 1.366,2.126 0.709,0.706 1.722,1.063 3.038,1.063 h 17.16 c 0.911,0 1.718,-0.329 2.43,-0.987 0.705,-0.661 1.063,-1.442 1.063,-2.353 0,-0.51 -0.105,-0.965 -0.304,-1.367 L 21.412,3.797 C 21.007,2.784 20.425,1.898 19.666,1.139 18.907,0.38 17.717,0 16.097,0 Z"/>
          </g>
          <g transform="translate(723.0711,197.569)" id="g44">
            <path id="path46" style="fill:#ea8127;fill-opacity:1;fill-rule:nonzero;stroke:none" d="m 0,0 h 25.661 v 0.304 c 0,3.239 -0.481,6.074 -1.442,8.504 -0.962,2.43 -2.43,4.303 -4.404,5.619 -1.975,1.316 -4.328,1.974 -7.062,1.974 -2.733,0 -5.037,-0.658 -6.91,-1.974 C 3.971,13.111 2.528,11.238 1.515,8.808 0.503,6.378 0,3.543 0,0.304 Z m 12.905,-49.048 c -11.946,0 -21.463,3.24 -28.547,9.719 -7.087,6.476 -10.782,16.097 -11.086,28.851 v 2.733 2.582 c 0.304,7.998 2.101,14.857 5.392,20.577 3.287,5.717 7.843,10.073 13.667,13.06 5.818,2.983 12.627,4.48 20.422,4.48 8.909,0 16.275,-1.772 22.096,-5.315 5.821,-3.547 10.197,-8.353 13.136,-14.427 2.936,-6.075 4.404,-13.01 4.404,-20.805 v -3.645 c 0,-1.113 -0.38,-2.024 -1.139,-2.73 -0.759,-0.712 -1.648,-1.063 -2.658,-1.063 H 0 v -0.456 -0.607 c 0.098,-2.939 0.607,-5.619 1.515,-8.049 0.912,-2.429 2.329,-4.356 4.253,-5.77 1.923,-1.421 4.252,-2.126 6.985,-2.126 2.025,0 3.721,0.325 5.087,0.987 1.367,0.655 2.506,1.414 3.417,2.278 0.912,0.857 1.62,1.594 2.126,2.202 0.912,1.009 1.646,1.642 2.202,1.898 0.557,0.25 1.443,0.379 2.658,0.379 h 18.831 c 1.009,0 1.844,-0.281 2.505,-0.835 0.658,-0.56 0.934,-1.344 0.836,-2.354 -0.102,-1.724 -0.965,-3.796 -2.582,-6.226 -1.62,-2.43 -3.974,-4.837 -7.062,-7.213 -3.091,-2.379 -6.96,-4.328 -11.617,-5.847 -4.657,-1.519 -10.073,-2.278 -16.249,-2.278"/>
          </g>
          <g transform="translate(476.9037,230.0687)" id="g48">
            <path id="path50" style="fill:#ea8127;fill-opacity:1;fill-rule:nonzero;stroke:none" d="M 0,0 C 0.525,-0.774 0.95,-1.576 1.184,-2.431 1.791,-3.343 2.5,-4.004 3.31,-4.406 4.12,-4.811 5.078,-5.013 6.195,-5.013 h 20.046 c 0.911,0 1.67,0.326 2.278,0.987 0.607,0.658 0.911,1.389 0.911,2.202 -0.104,3.24 -1.092,6.552 -2.961,9.947 -1.876,3.388 -4.632,6.606 -8.277,9.643 -0.836,0.698 -1.728,1.353 -2.652,1.986 C 12.927,14.142 9.557,8.828 5.196,4.414 3.635,2.834 1.886,1.366 0,0"/>
          </g>
          <g transform="translate(505.8781,197.1892)" id="g52">
            <path id="path54" style="fill:#ea8127;fill-opacity:1;fill-rule:nonzero;stroke:none" d="m 0,0 c -2.635,4.1 -6.786,7.441 -12.453,10.023 -5.672,2.581 -13.11,4.733 -22.323,6.454 -5.568,1.215 -9.947,2.379 -13.136,3.493 -1.744,0.609 -3.19,1.284 -4.389,2.015 -13.187,-4.056 -25.897,-5.555 -30.205,-5.7 0.534,-1.191 1.156,-2.317 1.871,-3.377 2.832,-4.201 6.957,-7.593 12.377,-10.175 5.413,-2.581 11.968,-4.682 19.663,-6.302 5.973,-1.215 10.756,-2.404 14.35,-3.568 3.594,-1.165 6.201,-2.481 7.821,-3.949 1.62,-1.468 2.43,-3.315 2.43,-5.54 0,-3.141 -1.493,-5.618 -4.48,-7.441 -2.987,-1.822 -7.416,-2.733 -13.288,-2.733 -3.543,0 -6.504,0.427 -8.884,1.291 -2.379,0.857 -4.302,1.996 -5.77,3.416 -1.468,1.415 -2.607,2.886 -3.414,4.404 -0.607,0.807 -1.291,1.465 -2.05,1.975 -0.759,0.503 -1.851,0.759 -3.265,0.759 H -84.28 c -0.911,0 -1.695,-0.332 -2.353,-0.987 -0.662,-0.661 -0.988,-1.395 -0.988,-2.202 0.203,-5.268 2.025,-10.229 5.467,-14.883 3.439,-4.657 8.505,-8.428 15.187,-11.313 6.681,-2.886 15.081,-4.328 25.205,-4.328 8.909,0 16.806,1.316 23.691,3.948 6.884,2.632 12.272,6.454 16.173,11.466 3.894,5.011 5.846,10.956 5.846,17.843 C 3.948,-9.238 2.629,-4.1 0,0"/>
          </g>
          <g transform="translate(422.0665,217.0609)" id="g56">
            <path id="path58" style="fill:#ffffff;fill-opacity:1;fill-rule:nonzero;stroke:none" d="M 0,0 C 0.004,-0.006 0.027,-0.009 0.034,-0.014 0.029,0.003 0.021,0.019 0.016,0.036 0.016,0.027 -0.001,0.009 0,0"/>
          </g>
          <g transform="translate(497.1433,297.3312)" id="g60">
            <path id="path62" style="fill:#305252;fill-opacity:1;fill-rule:nonzero;stroke:none" d="m 0,0 c -0.421,0.053 -22.257,0.944 -55.486,-22.868 -23.85,-17.09 -20.765,-46.467 -20.62,-46.857 0,0 0.051,0.014 0.085,0.023 0.884,0.235 13.016,3.684 31.702,19.468 3.724,3.147 7.529,6.88 11.167,10.726 0.025,0 0.049,0.003 0.074,0.003 0.992,-0.011 1.96,-0.049 2.918,-0.098 -2.243,-2.77 -4.606,-5.615 -7.065,-8.463 -15.014,-17.39 -37.849,-30.049 -37.836,-32.168 0.005,-0.017 0.013,-0.033 0.018,-0.051 0.604,-0.431 13.466,0.368 28.161,5.214 7.655,2.524 15.798,6.146 22.961,11.267 2.122,1.518 4.16,3.163 6.071,4.955 3.765,3.529 6.805,8.33 9.244,13.678 C 0.078,-26.122 1.117,-0.14 0,0"/>
          </g>
        </g>
      </g>
      <text id="text66" style="font-variant: normal; font-weight: normal; font-stretch: normal; font-size: 55.4666px; font-family: Poppins; writing-mode: lr-tb; fill: rgb(48, 82, 82); fill-opacity: 1; fill-rule: nonzero; stroke: none; white-space: pre;" transform="matrix(1,0,0,-1,114.7773,80.124)"><tspan id="tspan64" y="0" x="0 32.558895 69.943382 107.4388 135.89317 150.70276 178.65791 222.25467 265.85141 305.06631 316.71429 331.52386 370.73877 414.33551 429.14508 472.2981 515.89484 559.49158">SAVE FOOD. DO GOOD</tspan></text>
    </g>
  </g>
</svg>